<svg width="13" height="16" viewBox="0 0 13 16" fill="none" xmlns="http://www.w3.org/2000/svg">
<path d="M10.7 15.2109C11.08 15.5195 11.612 15.5898 12.064 15.3828C12.516 15.1758 12.8 14.7344 12.8 14.25V1.75C12.8 1.26562 12.512 0.824215 12.064 0.617184C11.616 0.410153 11.084 0.476559 10.7 0.789059L3.02 7.03906L2.56 7.41406V1.75C2.56 1.05859 1.988 0.499997 1.28 0.499997C0.572 0.499997 0 1.05859 0 1.75V14.25C0 14.9414 0.572 15.5 1.28 15.5C1.988 15.5 2.56 14.9414 2.56 14.25V8.58593L3.02 8.96093L10.7 15.2109Z" fill="white"/>
</svg>
