<svg width="41" height="33" viewBox="0 0 41 33" fill="none" xmlns="http://www.w3.org/2000/svg">
<g filter="url(#filter0_d_1_104)">
<path d="M31.8199 2.11142C31.8108 2.09375 31.7956 2.0799 31.7772 2.07236C29.6498 1.09628 27.4048 0.400253 25.0983 0.00170724C25.0774 -0.00218847 25.0557 0.000621944 25.0365 0.00973878C25.0172 0.0188556 25.0013 0.0338147 24.991 0.0524886C24.6853 0.607339 24.4078 1.17726 24.1595 1.76008C21.6733 1.38267 19.1443 1.38267 16.6581 1.76008C16.4082 1.17578 16.1262 0.605717 15.8135 0.0524886C15.8027 0.0342205 15.7868 0.019606 15.7676 0.0105483C15.7485 0.00149073 15.727 -0.00159011 15.7061 0.00170724C13.3994 0.399417 11.1542 1.09549 9.02707 2.07242C9.00886 2.08014 8.9935 2.09332 8.9831 2.11014C4.72924 8.46272 3.56394 14.6591 4.1356 20.7788C4.1372 20.7938 4.14181 20.8083 4.14915 20.8215C4.15648 20.8347 4.16639 20.8462 4.17829 20.8555C6.65527 22.6895 9.42581 24.0894 12.3717 24.9955C12.3924 25.0018 12.4146 25.0015 12.4351 24.9947C12.4557 24.988 12.4738 24.9751 12.4868 24.9578C13.1195 24.0969 13.6801 23.1853 14.163 22.2322C14.1696 22.2192 14.1734 22.2048 14.1741 22.1902C14.1748 22.1755 14.1724 22.1609 14.167 22.1473C14.1616 22.1336 14.1534 22.1213 14.1429 22.111C14.1324 22.1008 14.1199 22.0929 14.1061 22.0878C13.222 21.7496 12.3662 21.3418 11.5465 20.8683C11.5316 20.8596 11.5191 20.8473 11.5101 20.8326C11.5011 20.8178 11.4958 20.8011 11.4948 20.7839C11.4938 20.7666 11.497 20.7494 11.5042 20.7337C11.5115 20.718 11.5224 20.7043 11.5362 20.6939C11.7082 20.565 11.8803 20.431 12.0445 20.2956C12.0591 20.2836 12.0767 20.2759 12.0955 20.2734C12.1142 20.2709 12.1333 20.2736 12.1505 20.2813C17.5205 22.7321 23.3341 22.7321 28.6405 20.2813C28.6578 20.2731 28.6771 20.27 28.6961 20.2723C28.7151 20.2746 28.7331 20.2822 28.7479 20.2943C28.9122 20.4297 29.0842 20.565 29.2575 20.6939C29.2713 20.7042 29.2824 20.7178 29.2897 20.7335C29.297 20.7491 29.3004 20.7663 29.2995 20.7835C29.2986 20.8008 29.2935 20.8175 29.2846 20.8323C29.2757 20.8471 29.2633 20.8595 29.2484 20.8683C28.4306 21.3458 27.574 21.7533 26.6876 22.0865C26.6738 22.0918 26.6613 22.0999 26.6509 22.1103C26.6405 22.1207 26.6324 22.1332 26.6271 22.1469C26.6218 22.1607 26.6195 22.1754 26.6204 22.1901C26.6212 22.2048 26.6251 22.2191 26.6318 22.2322C27.1227 23.18 27.6825 24.0905 28.3067 24.9563C28.3194 24.9741 28.3373 24.9874 28.358 24.9944C28.3786 25.0014 28.401 25.0017 28.4218 24.9954C31.373 24.0924 34.1483 22.6923 36.6284 20.8555C36.6405 20.8467 36.6506 20.8354 36.6579 20.8224C36.6653 20.8094 36.6698 20.7949 36.6711 20.7801C37.3555 13.7051 35.5254 7.55949 31.8199 2.11142ZM14.9649 17.0525C13.3482 17.0525 12.016 15.5689 12.016 13.7468C12.016 11.9247 13.3223 10.4409 14.9649 10.4409C16.6203 10.4409 17.9396 11.9376 17.9138 13.7467C17.9138 15.5689 16.6074 17.0525 14.9649 17.0525ZM25.8679 17.0525C24.2512 17.0525 22.919 15.5689 22.919 13.7468C22.919 11.9247 24.2253 10.4409 25.8679 10.4409C27.5234 10.4409 28.8426 11.9376 28.8167 13.7467C28.8167 15.5689 27.5234 17.0525 25.8679 17.0525Z" fill="white"/>
</g>
<defs>
<filter id="filter0_d_1_104" x="0" y="0" width="40.8125" height="33" filterUnits="userSpaceOnUse" color-interpolation-filters="sRGB">
<feFlood flood-opacity="0" result="BackgroundImageFix"/>
<feColorMatrix in="SourceAlpha" type="matrix" values="0 0 0 0 0 0 0 0 0 0 0 0 0 0 0 0 0 0 127 0" result="hardAlpha"/>
<feOffset dy="4"/>
<feGaussianBlur stdDeviation="2"/>
<feComposite in2="hardAlpha" operator="out"/>
<feColorMatrix type="matrix" values="0 0 0 0 0 0 0 0 0 0 0 0 0 0 0 0 0 0 0.25 0"/>
<feBlend mode="normal" in2="BackgroundImageFix" result="effect1_dropShadow_1_104"/>
<feBlend mode="normal" in="SourceGraphic" in2="effect1_dropShadow_1_104" result="shape"/>
</filter>
</defs>
</svg>
