<svg width="34" height="33" viewBox="0 0 34 33" fill="none" xmlns="http://www.w3.org/2000/svg">
<g filter="url(#filter0_d_1_102)">
<path d="M12.5762 20.13C12.5762 20.2334 12.4573 20.3161 12.3074 20.3161C12.1368 20.3316 12.0179 20.2489 12.0179 20.13C12.0179 20.0266 12.1368 19.9439 12.2867 19.9439C12.4418 19.9284 12.5762 20.0111 12.5762 20.13ZM10.9685 19.8973C10.9323 20.0007 11.0357 20.1196 11.1908 20.1506C11.3252 20.2023 11.4802 20.1506 11.5113 20.0472C11.5423 19.9439 11.4441 19.825 11.289 19.7784C11.1546 19.7423 11.0046 19.7939 10.9685 19.8973ZM13.2534 19.8095C13.1035 19.8456 13.0001 19.9439 13.0156 20.0628C13.0311 20.1661 13.1655 20.2334 13.3206 20.1972C13.4705 20.161 13.5739 20.0628 13.5584 19.9594C13.5429 19.8611 13.4033 19.7939 13.2534 19.8095ZM16.6549 0C9.48482 0 4 5.44346 4 12.6135C4 18.3465 7.6083 23.2523 12.7623 24.9789C13.424 25.0978 13.6566 24.6894 13.6566 24.3534C13.6566 24.0329 13.6411 22.265 13.6411 21.1794C13.6411 21.1794 10.0224 21.9548 9.26253 19.6389C9.26253 19.6389 8.67321 18.1345 7.82542 17.7468C7.82542 17.7468 6.64161 16.9352 7.90813 16.9507C7.90813 16.9507 9.19533 17.0541 9.90355 18.2845C11.0357 20.2799 12.9329 19.7061 13.6721 19.3649C13.791 18.5378 14.127 17.9639 14.4992 17.6228C11.6095 17.3023 8.69389 16.8835 8.69389 11.9105C8.69389 10.4889 9.08677 9.77549 9.91389 8.86566C9.77948 8.52965 9.34008 7.14422 10.0483 5.35558C11.1287 5.01957 13.6152 6.75134 13.6152 6.75134C14.6491 6.46185 15.7606 6.31194 16.8617 6.31194C17.9628 6.31194 19.0742 6.46185 20.1081 6.75134C20.1081 6.75134 22.5946 5.0144 23.675 5.35558C24.3833 7.14939 23.9439 8.52965 23.8095 8.86566C24.6366 9.78066 25.1432 10.494 25.1432 11.9105C25.1432 16.899 22.0984 17.2971 19.2086 17.6228C19.6842 18.0312 20.0874 18.8066 20.0874 20.0214C20.0874 21.7635 20.0719 23.9192 20.0719 24.3431C20.0719 24.6791 20.3097 25.0875 20.9662 24.9686C26.1357 23.2523 29.6406 18.3465 29.6406 12.6135C29.6406 5.44346 23.825 0 16.6549 0ZM9.02474 17.8295C8.95753 17.8812 8.97304 18.0001 9.06092 18.0984C9.14363 18.1811 9.26253 18.2173 9.32974 18.1501C9.39694 18.0984 9.38143 17.9795 9.29355 17.8812C9.21084 17.7985 9.09194 17.7623 9.02474 17.8295ZM8.46643 17.4108C8.43025 17.478 8.48194 17.5607 8.58533 17.6124C8.66804 17.6641 8.77143 17.6486 8.80762 17.5762C8.8438 17.509 8.79211 17.4263 8.68872 17.3746C8.58533 17.3436 8.50262 17.3591 8.46643 17.4108ZM10.1413 19.2512C10.0586 19.3184 10.0896 19.4734 10.2085 19.5717C10.3274 19.6906 10.4774 19.7061 10.5446 19.6234C10.6118 19.5562 10.5808 19.4011 10.4774 19.3028C10.3636 19.1839 10.2085 19.1684 10.1413 19.2512ZM9.55202 18.4912C9.46931 18.5429 9.46931 18.6773 9.55202 18.7962C9.63474 18.9151 9.77431 18.9668 9.84152 18.9151C9.92423 18.8479 9.92423 18.7135 9.84152 18.5946C9.76914 18.4757 9.63474 18.424 9.55202 18.4912Z" fill="white"/>
</g>
<defs>
<filter id="filter0_d_1_102" x="0" y="0" width="33.6406" height="33" filterUnits="userSpaceOnUse" color-interpolation-filters="sRGB">
<feFlood flood-opacity="0" result="BackgroundImageFix"/>
<feColorMatrix in="SourceAlpha" type="matrix" values="0 0 0 0 0 0 0 0 0 0 0 0 0 0 0 0 0 0 127 0" result="hardAlpha"/>
<feOffset dy="4"/>
<feGaussianBlur stdDeviation="2"/>
<feComposite in2="hardAlpha" operator="out"/>
<feColorMatrix type="matrix" values="0 0 0 0 0 0 0 0 0 0 0 0 0 0 0 0 0 0 0.25 0"/>
<feBlend mode="normal" in2="BackgroundImageFix" result="effect1_dropShadow_1_102"/>
<feBlend mode="normal" in="SourceGraphic" in2="effect1_dropShadow_1_102" result="shape"/>
</filter>
</defs>
</svg>
