<svg width="20" height="20" viewBox="0 0 20 20" fill="none" xmlns="http://www.w3.org/2000/svg">
<path d="M19.4961 0.24609C19.8125 0.480465 20 0.855465 20 1.25V4.0625V14.375C20 16.1016 18.3203 17.5 16.25 17.5C14.1797 17.5 12.5 16.1016 12.5 14.375C12.5 12.6484 14.1797 11.25 16.25 11.25C16.6875 11.25 17.1094 11.3125 17.5 11.4297V5.74218L7.5 8.74218V16.875C7.5 18.6016 5.82031 20 3.75 20C1.67969 20 0 18.6016 0 16.875C0 15.1484 1.67969 13.75 3.75 13.75C4.1875 13.75 4.60938 13.8125 5 13.9297V7.8125V5C5 4.44921 5.36328 3.96093 5.89062 3.80078L18.3906 0.0507775C18.7695 -0.0625038 19.1797 0.0078087 19.4961 0.24609Z" fill="white"/>
</svg>
