<svg width="13" height="16" viewBox="0 0 13 16" fill="none" xmlns="http://www.w3.org/2000/svg">
<path d="M2.1 15.2109C1.72 15.5195 1.188 15.5898 0.736 15.3828C0.284 15.1758 0 14.7344 0 14.25V1.75C0 1.26562 0.288 0.824215 0.736 0.617184C1.184 0.410153 1.716 0.476559 2.1 0.789059L9.78 7.03906L10.24 7.41406V1.75C10.24 1.05859 10.812 0.499997 11.52 0.499997C12.228 0.499997 12.8 1.05859 12.8 1.75V14.25C12.8 14.9414 12.228 15.5 11.52 15.5C10.812 15.5 10.24 14.9414 10.24 14.25V8.58593L9.78 8.96093L2.1 15.2109Z" fill="white"/>
</svg>
